<?xml version="1.0"?>
<!-- Generated by SVGo and Plotinum VG -->
<svg width="576pt" height="360pt" viewBox="0 0 576 360"
	xmlns="http://www.w3.org/2000/svg"
	xmlns:xlink="http://www.w3.org/1999/xlink">
<g transform="scale(1, -1) translate(0, -360)">
<path d="M0,0L576,0L576,360L0,360Z" style="fill:#FFFFFF" />
<text x="-17.602" y="-350.61" transform="scale(1, -1)"
	style="font-family:Liberation Serif;font-variant:normal;font-weight:normal;font-style:normal;font-size:12px">Marshal — time relative to this library (1.0 = this library; omarchy, go version go1.26.2 linux/amd64, tier avx512, 2026-08-07)</text>
<text x="305.79" y="-3.9023" transform="scale(1, -1)"
	style="font-family:Liberation Serif;font-variant:normal;font-weight:normal;font-style:normal;font-size:12px">library</text>
<g transform="rotate(22.91831180523293)">
<text x="71.312" y="-0.26303" transform="scale(1, -1)"
	style="font-family:Liberation Serif;font-variant:normal;font-weight:normal;font-style:normal;font-size:9px">this</text>
</g>
<g transform="rotate(22.91831180523293)">
<text x="133.84" y="27.966" transform="scale(1, -1)"
	style="font-family:Liberation Serif;font-variant:normal;font-weight:normal;font-style:normal;font-size:9px">goccy</text>
</g>
<g transform="rotate(22.91831180523293)">
<text x="197.85" y="56.195" transform="scale(1, -1)"
	style="font-family:Liberation Serif;font-variant:normal;font-weight:normal;font-style:normal;font-size:9px">jsoniter</text>
</g>
<g transform="rotate(22.91831180523293)">
<text x="268.87" y="84.424" transform="scale(1, -1)"
	style="font-family:Liberation Serif;font-variant:normal;font-weight:normal;font-style:normal;font-size:9px">other</text>
</g>
<g transform="rotate(22.91831180523293)">
<text x="326.39" y="112.65" transform="scale(1, -1)"
	style="font-family:Liberation Serif;font-variant:normal;font-weight:normal;font-style:normal;font-size:9px">segmentio</text>
</g>
<g transform="rotate(22.91831180523293)">
<text x="402.15" y="140.88" transform="scale(1, -1)"
	style="font-family:Liberation Serif;font-variant:normal;font-weight:normal;font-style:normal;font-size:9px">sonic</text>
</g>
<g transform="rotate(22.91831180523293)">
<text x="468.42" y="169.11" transform="scale(1, -1)"
	style="font-family:Liberation Serif;font-variant:normal;font-weight:normal;font-style:normal;font-size:9px">stdlib</text>
</g>
<g transform="rotate(90)">
<text x="32.77" y="9.3867" transform="scale(1, -1)"
	style="font-family:Liberation Serif;font-variant:normal;font-weight:normal;font-style:normal;font-size:12px">time ÷ this library&#39;s time (1.0 = level; lower is faster)</text>
</g>
<text x="35.963" y="-159.55" transform="scale(1, -1)"
	style="font-family:Liberation Serif;font-variant:normal;font-weight:normal;font-style:normal;font-size:10px">1</text>
<path d="M43.463,161.83L51.463,161.83" style="fill:none;stroke:#000000;stroke-width:0.5" />
<path d="M47.463,161.83L51.463,161.83" style="fill:none;stroke:#000000;stroke-width:0.5" />
<path d="M47.463,226.75L51.463,226.75" style="fill:none;stroke:#000000;stroke-width:0.5" />
<path d="M47.463,264.72L51.463,264.72" style="fill:none;stroke:#000000;stroke-width:0.5" />
<path d="M51.463,41.875L51.463,277.45" style="fill:none;stroke:#000000;stroke-width:0.5" />
<path d="M58.715,161.83L58.715,161.83L64.951,161.83L64.951,161.83Z" style="fill:#1F77B4" />
<path d="M131.2,161.83L131.2,248.97L137.44,248.97L137.44,161.83Z" style="fill:#1F77B4" />
<path d="M203.69,161.83L203.69,264.36L209.93,264.36L209.93,161.83Z" style="fill:#1F77B4" />
<path d="M276.19,161.83L276.19,125.14L282.42,125.14L282.42,161.83Z" style="fill:#1F77B4" />
<path d="M348.68,161.83L348.68,248.91L354.91,248.91L354.91,161.83Z" style="fill:#1F77B4" />
<path d="M421.17,161.83L421.17,153.61L427.4,153.61L427.4,161.83Z" style="fill:#1F77B4" />
<path d="M493.66,161.83L493.66,261.41L499.89,261.41L499.89,161.83Z" style="fill:#1F77B4" />
<path d="M64.951,161.83L64.951,161.83L71.187,161.83L71.187,161.83Z" style="fill:#FF7F0E" />
<path d="M137.44,161.83L137.44,150.21L143.68,150.21L143.68,161.83Z" style="fill:#FF7F0E" />
<path d="M209.93,161.83L209.93,161.83L216.17,161.83L216.17,161.83Z" style="fill:#FF7F0E" />
<path d="M282.42,161.83L282.42,161.83L288.66,161.83L288.66,161.83Z" style="fill:#FF7F0E" />
<path d="M354.91,161.83L354.91,161.83L361.15,161.83L361.15,161.83Z" style="fill:#FF7F0E" />
<path d="M427.4,161.83L427.4,104.65L433.64,104.65L433.64,161.83Z" style="fill:#FF7F0E" />
<path d="M499.89,161.83L499.89,41.875L506.13,41.875L506.13,161.83Z" style="fill:#FF7F0E" />
<path d="M71.187,161.83L71.187,161.83L77.423,161.83L77.423,161.83Z" style="fill:#2CA02C" />
<path d="M143.68,161.83L143.68,161.83L149.91,161.83L149.91,161.83Z" style="fill:#2CA02C" />
<path d="M216.17,161.83L216.17,161.83L222.4,161.83L222.4,161.83Z" style="fill:#2CA02C" />
<path d="M288.66,161.83L288.66,161.83L294.89,161.83L294.89,161.83Z" style="fill:#2CA02C" />
<path d="M361.15,161.83L361.15,161.83L367.38,161.83L367.38,161.83Z" style="fill:#2CA02C" />
<path d="M433.64,161.83L433.64,156.72L439.87,156.72L439.87,161.83Z" style="fill:#2CA02C" />
<path d="M506.13,161.83L506.13,161.83L512.36,161.83L512.36,161.83Z" style="fill:#2CA02C" />
<path d="M68.069,161.83L575.5,161.83" style="fill:none;stroke:#000000;stroke-dasharray:5.6693,5.6693" />
<path d="M58.715,333.93L58.715,344.12L78.715,344.12L78.715,333.93Z" style="fill:#1F77B4" />
<path d="M58.715,323.75L58.715,333.93L78.715,333.93L78.715,323.75Z" style="fill:#FF7F0E" />
<text x="81.715" y="-326.35" transform="scale(1, -1)"
	style="font-family:Liberation Serif;font-variant:normal;font-weight:normal;font-style:normal;font-size:12px">sorted</text>
<path d="M58.715,313.56L58.715,323.75L78.715,323.75L78.715,313.56Z" style="fill:#2CA02C" />
<text x="81.715" y="-316.17" transform="scale(1, -1)"
	style="font-family:Liberation Serif;font-variant:normal;font-weight:normal;font-style:normal;font-size:12px">unsorted</text>
</g>
</svg>
